<svg width="500" height="500" viewBox="0 0 500 500" fill="none" xmlns="http://www.w3.org/2000/svg">
<path d="M253.74 477.61C383.687 477.61 489.03 416.788 489.03 341.76C489.03 266.732 383.687 205.91 253.74 205.91C123.793 205.91 18.45 266.732 18.45 341.76C18.45 416.788 123.793 477.61 253.74 477.61Z" fill="#F5F5F5"/>
<path d="M408.88 408.38C445.745 408.38 475.63 391.125 475.63 369.84C475.63 348.555 445.745 331.3 408.88 331.3C372.015 331.3 342.13 348.555 342.13 369.84C342.13 391.125 372.015 408.38 408.88 408.38Z" fill="#E0E0E0"/>
<path d="M239.95 390.63L164.65 347.14L250.72 297.45L326.03 340.93L239.95 390.63Z" fill="#E0E0E0"/>
<path d="M34.91 377.18L132.03 433.25L213.49 386.23L116.37 330.16L34.91 377.18Z" fill="#E0E0E0"/>
<path d="M178.52 113.63V108.11C178.478 107.791 178.355 107.488 178.163 107.231C177.97 106.973 177.714 106.77 177.42 106.64L144.09 87.5201C143.296 87.1208 142.419 86.9128 141.53 86.9128C140.641 86.9128 139.764 87.1208 138.97 87.5201L43.18 142.52C42.8857 142.65 42.6298 142.853 42.4371 143.111C42.2444 143.368 42.1214 143.671 42.08 143.99V149.51C42.1205 149.829 42.2431 150.133 42.4359 150.39C42.6287 150.648 42.8851 150.851 43.18 150.98L76.5 170.07C77.2943 170.469 78.1709 170.677 79.06 170.677C79.949 170.677 80.8257 170.469 81.62 170.07L177.41 115.07C177.705 114.941 177.961 114.738 178.154 114.48C178.347 114.223 178.469 113.919 178.51 113.6L178.52 113.63Z" fill="#F0F0F0"/>
<path d="M43.1799 145.43L76.4999 164.55C77.2928 164.954 78.1701 165.165 79.0599 165.165C79.9498 165.165 80.827 164.954 81.6199 164.55L177.41 109.55C178.82 108.74 178.82 107.43 177.41 106.61L144.09 87.5201C143.296 87.1208 142.419 86.9128 141.53 86.9128C140.641 86.9128 139.764 87.1208 138.97 87.5201L43.1799 142.52C41.7699 143.31 41.7699 144.62 43.1799 145.43Z" fill="#FAFAFA"/>
<path d="M79.06 165.17V170.68C78.1691 170.693 77.2892 170.483 76.5 170.07L43.18 151C42.8851 150.871 42.6287 150.668 42.4359 150.41C42.2431 150.153 42.1205 149.849 42.08 149.53V149.53V144C42.0995 143.777 42.1715 143.561 42.29 143.37C41.9 144.08 42.19 144.9 43.18 145.47L76.5 164.56C77.287 164.979 78.1685 165.189 79.06 165.17V165.17Z" fill="#E0E0E0"/>
<path d="M96.96 118.53L125.19 134.62L171.82 107.86L143.6 91.76L96.96 118.53Z" fill="#E0E0E0"/>
<path d="M125.51 133.4L98.28 117.77C98.9876 115.461 98.935 112.986 98.13 110.71L125.19 126.17C125.19 126.17 125.71 127.88 125.51 133.4Z" fill="white"/>
<path d="M123.8 124C124.56 124.491 125.193 125.155 125.649 125.936C126.104 126.718 126.368 127.597 126.42 128.5V133.76C126.42 135.42 125.24 136.09 123.8 135.27L97 119.83V118.53L123.48 133.63C124.35 134.13 125.05 133.72 125.05 132.73V127.85C125.02 127.308 124.862 126.781 124.589 126.312C124.316 125.842 123.936 125.444 123.48 125.15L97 110V108.52L123.8 124Z" fill="#EBEBEB"/>
<path d="M97 108.57L143.6 81.8L170.43 97.2C171.192 97.6915 171.826 98.3564 172.282 99.1403C172.737 99.9242 173 100.805 173.05 101.71V107C173.086 107.324 173.033 107.651 172.897 107.946C172.761 108.242 172.548 108.496 172.28 108.68L125.65 135.45C125.913 135.262 126.122 135.007 126.256 134.712C126.389 134.417 126.442 134.092 126.41 133.77V128.5C126.361 127.596 126.098 126.716 125.643 125.934C125.187 125.152 124.552 124.489 123.79 124L97 108.57Z" fill="#FAFAFA"/>
<path d="M125.65 125.91C126.125 126.682 126.391 127.564 126.42 128.47V133.74C126.452 134.062 126.399 134.387 126.266 134.682C126.132 134.977 125.923 135.232 125.66 135.42L172.29 108.65C172.558 108.466 172.771 108.212 172.907 107.917C173.043 107.621 173.095 107.294 173.06 106.97V101.71C173.031 100.804 172.765 99.9218 172.29 99.1501L125.65 125.91Z" fill="#F0F0F0"/>
<path d="M68.26 78.4802L67.99 82.0402L99.51 98.9502L100.22 96.8702L68.26 78.4802Z" fill="#EBEBEB"/>
<path d="M99.8 97.7001L69.27 80.0801L63.96 83.1401L95.09 101.35L99.8 97.7001Z" fill="white"/>
<path d="M89.36 99.4602L86.36 134.84C86.3747 135.24 86.4851 135.63 86.6817 135.978C86.8783 136.326 87.1555 136.621 87.49 136.84L105.2 147.09C105.483 147.246 105.797 147.335 106.12 147.35L95.12 102.54C94.7991 102.523 94.4856 102.437 94.2 102.29L92.93 101.55L89.36 99.4602Z" fill="#E0E0E0"/>
<path d="M96.44 102.25L99.6 99.54L101.91 97.54C102.15 97.16 102.43 96.88 102.28 96.54L113.14 141.02C113.29 141.33 113.33 142.02 112.9 142.28L107.43 146.96C107.016 147.179 106.546 147.27 106.08 147.22L95.08 102.41C95.5392 102.489 96.0116 102.434 96.44 102.25V102.25Z" fill="#F0F0F0"/>
<path d="M101.92 96.2501C102.54 96.6101 102.39 97.0101 101.92 97.5501L96.44 102.24C96.0912 102.422 95.7035 102.518 95.31 102.518C94.9165 102.518 94.5288 102.422 94.18 102.24L89.36 99.4601C88.73 99.1001 88.62 98.5801 89.11 98.3001C89.432 98.1695 89.7796 98.1142 90.1262 98.1385C90.4728 98.1627 90.8093 98.2659 91.11 98.4401L94.91 100.64C95.0263 100.699 95.1547 100.73 95.285 100.73C95.4153 100.73 95.5438 100.699 95.66 100.64L99.66 97.1601C99.87 97.0401 99.87 96.8501 99.66 96.7301L68.26 78.4801L69.76 77.6101L101.92 96.2501Z" fill="#FAFAFA"/>
<path d="M59.1599 80.1899L89.1899 97.5299V154.67L59.1599 137.32V80.1899Z" fill="#EBEBEB"/>
<path d="M88.2199 98.48L59.1599 81.8C57.3826 83.6844 55.055 84.9584 52.5099 85.44L81.3299 102.05C81.3299 102.05 83.1899 101.61 88.2199 98.48Z" fill="white"/>
<path d="M78.5399 102C79.406 102.434 80.3613 102.66 81.3299 102.66C82.2985 102.66 83.2538 102.434 84.1199 102L88.9999 99.14C90.5399 98.25 90.5399 96.82 88.9999 95.93L60.3699 79.49L59.1599 80.19L87.3299 96.46C87.5376 96.5206 87.7201 96.6469 87.8499 96.82C87.9797 96.9931 88.0499 97.2036 88.0499 97.42C88.0499 97.6364 87.9797 97.8469 87.8499 98.02C87.7201 98.1931 87.5376 98.3194 87.3299 98.38L82.7799 101C82.2602 101.261 81.6866 101.397 81.1049 101.397C80.5232 101.397 79.9496 101.261 79.4299 101L51.2699 84.72L49.8899 85.51L78.5399 102Z" fill="#FAFAFA"/>
<path d="M49.8999 85.51V142.64L78.5399 159.08C79.406 159.514 80.3613 159.74 81.3299 159.74C82.2985 159.74 83.2538 159.514 84.1199 159.08L89.0199 156.27C89.3384 156.13 89.6132 155.906 89.8156 155.623C90.0179 155.339 90.1403 155.007 90.1699 154.66V97.53C90.1389 97.8779 90.0135 98.2107 89.8073 98.4927C89.6012 98.7746 89.322 98.995 88.9999 99.13L84.1199 102C83.2538 102.434 82.2985 102.66 81.3299 102.66C80.3613 102.66 79.406 102.434 78.5399 102L49.8999 85.51Z" fill="#EBEBEB"/>
<path d="M81.3299 102.61C82.3007 102.629 83.2606 102.402 84.1199 101.95L88.9999 99.13C89.3183 98.9921 89.5933 98.7705 89.7958 98.4888C89.9983 98.2071 90.1207 97.8757 90.1499 97.53V154.66C90.1203 155.007 89.9979 155.339 89.7956 155.623C89.5933 155.906 89.3184 156.13 88.9999 156.27L84.0999 159.08C83.2406 159.532 82.2807 159.759 81.3099 159.74L81.3299 102.61Z" fill="#F0F0F0"/>
<path d="M322.57 310C322.42 307.47 322.08 304.44 321.67 300.92C320.14 287.56 318.05 269.26 323.59 251.73C326.96 241.06 335.08 228.41 347.76 224.9C350.58 224.12 357.4 222.97 360.02 229.02C360.388 229.894 360.608 230.824 360.67 231.77C360.94 235.61 359.21 239 357.29 242.09C355.08 245.68 352.52 249.09 350.04 252.41C347.7 255.55 345.27 258.79 343.15 262.15C340.86 265.801 338.854 269.622 337.15 273.58L336.34 273.23C338.041 269.232 340.047 265.371 342.34 261.68C344.47 258.29 346.91 255.03 349.27 251.88C351.73 248.58 354.27 245.18 356.47 241.63C358.31 238.63 359.97 235.42 359.72 231.83C359.666 230.983 359.47 230.152 359.14 229.37C356.8 223.96 350.52 225.04 347.93 225.75C335.59 229.17 327.66 241.55 324.36 251.99C318.88 269.35 320.96 287.54 322.48 300.82C322.88 304.35 323.23 307.4 323.38 309.95L322.57 310Z" fill="#F205B0"/>
<path d="M323.47 324.54C323.404 324.549 323.336 324.549 323.27 324.54C323.078 324.503 322.897 324.421 322.743 324.301C322.588 324.181 322.464 324.027 322.38 323.85C322.205 323.355 322.205 322.815 322.38 322.32C322.521 321.362 322.521 320.388 322.38 319.43C322.38 318.89 322.29 318.32 322.29 317.81V311.6C323.089 300.445 326.357 289.607 331.86 279.87C336.74 271.38 342.14 265.73 348.86 262.07C352.483 260.079 356.455 258.806 360.56 258.32C364.184 257.92 367.827 258.882 370.78 261.02C373.83 263.43 375.2 267.56 374.05 270.83C373.24 273.12 371.39 274.83 369.5 276.38C366.13 279.13 362.45 281.59 358.9 283.97C355.95 285.97 352.9 287.97 350.05 290.17C341.331 296.9 334.016 305.275 328.52 314.82C327.62 316.37 326.77 317.97 325.99 319.57L325.67 320.2C325.358 320.771 325.084 321.363 324.85 321.97C324.8 322.1 324.75 322.37 324.68 322.68C324.629 323.25 324.448 323.801 324.15 324.29C323.963 324.455 323.72 324.545 323.47 324.54ZM362 259.15C361.55 259.15 361.1 259.15 360.64 259.21C356.656 259.675 352.801 260.911 349.29 262.85C342.73 266.42 337.44 271.97 332.64 280.31C327.211 289.926 323.984 300.626 323.19 311.64V317.79C323.19 318.27 323.19 318.79 323.28 319.34C323.441 320.387 323.441 321.453 323.28 322.5C323.172 322.825 323.172 323.175 323.28 323.5C323.306 323.551 323.342 323.595 323.387 323.629C323.432 323.664 323.484 323.688 323.54 323.7C323.718 323.33 323.84 322.936 323.9 322.53C323.948 322.252 324.015 321.978 324.1 321.71C324.344 321.068 324.631 320.443 324.96 319.84L325.27 319.22C326.07 317.6 326.93 315.99 327.83 314.42C329.699 311.184 331.774 308.071 334.04 305.1C338.52 299.246 343.748 294.005 349.59 289.51C352.47 287.31 355.53 285.26 358.49 283.28C362.03 280.91 365.68 278.46 369.03 275.74C370.81 274.29 372.56 272.66 373.3 270.58C374.3 267.65 373.07 263.94 370.3 261.75C367.908 259.967 364.981 259.05 362 259.15Z" fill="#F205B0"/>
<path d="M322.72 316H322.61C322.554 315.987 322.5 315.963 322.454 315.929C322.407 315.896 322.367 315.853 322.337 315.803C322.308 315.754 322.288 315.699 322.28 315.641C322.272 315.584 322.275 315.526 322.29 315.47C330.54 282.57 353.35 267.89 365.53 264.4C365.641 264.369 365.76 264.383 365.862 264.439C365.963 264.496 366.037 264.589 366.07 264.7C366.101 264.813 366.087 264.933 366.031 265.036C365.975 265.139 365.882 265.215 365.77 265.25C353.77 268.68 331.3 283.17 323.15 315.68C323.122 315.772 323.065 315.853 322.988 315.911C322.91 315.969 322.817 316 322.72 316V316Z" fill="#F205B0"/>
<path d="M322.67 289C322.552 288.99 322.443 288.934 322.367 288.844C322.29 288.754 322.252 288.638 322.26 288.52C324.89 252.99 348.13 233.52 350.77 231.43C350.815 231.392 350.867 231.364 350.922 231.347C350.978 231.331 351.037 231.325 351.095 231.332C351.153 231.338 351.209 231.357 351.26 231.386C351.311 231.415 351.355 231.453 351.39 231.5C351.426 231.545 351.453 231.597 351.469 231.653C351.485 231.709 351.49 231.767 351.484 231.825C351.477 231.882 351.46 231.938 351.431 231.989C351.403 232.039 351.365 232.084 351.32 232.12C348.71 234.19 325.74 253.43 323.15 288.59C323.137 288.707 323.081 288.814 322.991 288.89C322.902 288.967 322.787 289.006 322.67 289V289Z" fill="#F205B0"/>
<path d="M319.9 165.09L264.29 133C263.86 132.691 263.356 132.502 262.829 132.451C262.302 132.4 261.771 132.489 261.29 132.71L257.29 135.02C256.85 135.326 256.5 135.745 256.277 136.232C256.054 136.719 255.965 137.257 256.02 137.79V290C256.102 291.483 256.532 292.926 257.275 294.212C258.019 295.497 259.055 296.59 260.3 297.4L315.9 329.45C316.329 329.76 316.833 329.952 317.36 330.004C317.887 330.057 318.418 329.969 318.9 329.75L322.9 327.43C323.335 327.122 323.679 326.704 323.899 326.219C324.119 325.734 324.205 325.2 324.15 324.67V172.49C324.072 171.009 323.647 169.568 322.909 168.282C322.171 166.997 321.14 165.903 319.9 165.09V165.09Z" fill="#263238"/>
<path d="M268 292.61L264 294.92V307.58C264.02 307.951 264.128 308.311 264.314 308.633C264.5 308.954 264.759 309.227 265.07 309.43L266.94 310.51C267.272 310.678 267.638 310.765 268.01 310.765C268.382 310.765 268.748 310.678 269.08 310.51L270.95 309.43C271.614 309.001 272.128 308.375 272.42 307.64L276.03 297.24L268 292.61Z" fill="#263238"/>
<path d="M264 307.58C264.02 307.951 264.128 308.312 264.314 308.633C264.5 308.954 264.759 309.227 265.07 309.43L266.94 310.51C267.069 310.588 267.214 310.636 267.365 310.65C267.515 310.664 267.667 310.644 267.808 310.591C267.95 310.538 268.077 310.454 268.182 310.345C268.286 310.235 268.364 310.104 268.41 309.96L272 299.55L264 294.92V307.58Z" fill="#37474F"/>
<path d="M308.12 315.7L304.12 318.02V330.67C304.138 331.041 304.244 331.403 304.428 331.726C304.612 332.05 304.87 332.325 305.18 332.53L307.06 333.61C307.39 333.778 307.755 333.865 308.125 333.865C308.495 333.865 308.86 333.778 309.19 333.61L311.07 332.53C311.734 332.101 312.248 331.475 312.54 330.74L316.14 320.33L308.12 315.7Z" fill="#263238"/>
<path d="M304.12 330.67C304.138 331.042 304.244 331.403 304.428 331.727C304.612 332.05 304.87 332.325 305.18 332.53L307.06 333.61C307.189 333.688 307.334 333.736 307.485 333.75C307.635 333.764 307.787 333.744 307.928 333.691C308.07 333.638 308.197 333.554 308.302 333.445C308.406 333.335 308.484 333.204 308.53 333.06L312.14 322.65L304.14 318.02L304.12 330.67Z" fill="#37474F"/>
<path d="M260.56 135.43L316.16 167.43C317.405 168.242 318.441 169.337 319.185 170.624C319.928 171.911 320.358 173.355 320.44 174.84V327.05C320.546 327.584 320.482 328.139 320.256 328.635C320.031 329.131 319.656 329.545 319.184 329.817C318.712 330.089 318.167 330.207 317.624 330.154C317.082 330.101 316.57 329.879 316.16 329.52L260.56 297.46C259.317 296.649 258.282 295.556 257.54 294.271C256.798 292.985 256.37 291.542 256.29 290.06V137.89C256.183 137.356 256.246 136.802 256.471 136.307C256.695 135.811 257.07 135.398 257.541 135.126C258.013 134.854 258.558 134.738 259.1 134.792C259.641 134.847 260.152 135.07 260.56 135.43V135.43Z" fill="#37474F"/>
<path d="M179.82 343.48L239.96 378.2L324.16 329.59L320.15 327.27L260.01 292.55L179.82 338.85V343.48Z" fill="#455A64"/>
<path d="M239.96 378.2V373.57L324.16 324.96V329.59L239.96 378.2Z" fill="#263238"/>
<path d="M240.34 371.46L239.73 371.05C250.4 354.9 250.33 327 249.46 320C249.39 319.53 249.34 319.24 249.33 319.13L250.06 319.01C250.06 319.23 250.14 319.49 250.18 319.8C250.96 324.75 255.37 351.64 260.59 359.8L259.97 360.2C255.84 353.79 252.31 336.49 250.54 326.51C250.65 337.84 249 358.43 240.34 371.46Z" fill="#FAFAFA"/>
<path d="M275.46 346.8C274.55 346.53 253.29 340.09 251.33 330.71L252.06 330.56C253.92 339.51 275.45 346.03 275.67 346.1L275.46 346.8Z" fill="#FAFAFA"/>
<path d="M254 343L253.46 340.71C253.386 340.289 253.172 339.906 252.852 339.623C252.533 339.34 252.126 339.173 251.7 339.15C251.348 339.099 250.988 339.156 250.67 339.315C250.352 339.475 250.09 339.727 249.92 340.04L249.23 339.75C249.461 339.293 249.829 338.918 250.282 338.678C250.735 338.438 251.251 338.344 251.76 338.41C252.128 338.433 252.487 338.534 252.813 338.707C253.138 338.879 253.424 339.119 253.65 339.41C253.77 338.462 254.254 337.598 255 337C255.283 336.852 255.599 336.78 255.918 336.791C256.237 336.801 256.548 336.894 256.82 337.06L256.49 337.72C256.323 337.613 256.132 337.55 255.934 337.538C255.736 337.526 255.539 337.564 255.36 337.65C254.51 338.13 254.18 339.98 254.13 340.65L254 343Z" fill="#FAFAFA"/>
<path d="M256.09 350.63L255.43 348.55C254.68 346.2 253.43 344.85 251.95 344.76C251.332 344.748 250.723 344.917 250.199 345.245C249.675 345.574 249.259 346.048 249 346.61L248.33 346.29C248.646 345.588 249.164 344.995 249.817 344.588C250.471 344.18 251.23 343.975 252 344C252.89 344.05 254.42 344.53 255.56 346.85C255.81 345.02 256.56 342.08 258.49 340.85C259.183 340.47 259.962 340.275 260.752 340.284C261.542 340.293 262.316 340.505 263 340.9L262.69 341.57C262.117 341.231 261.467 341.045 260.802 341.029C260.136 341.013 259.478 341.169 258.89 341.48C256.32 343.08 256.15 348.37 256.15 348.43L256.09 350.63Z" fill="#FAFAFA"/>
<path d="M247.06 355.71L246.4 355.37C247.88 352.52 251.13 350.47 253.95 350.61C254.548 350.617 255.137 350.758 255.674 351.023C256.21 351.287 256.681 351.669 257.05 352.14C257.321 350.701 257.881 349.332 258.696 348.115C259.511 346.898 260.563 345.859 261.79 345.06C263.107 344.185 264.626 343.664 266.202 343.547C267.779 343.43 269.358 343.72 270.79 344.39L270.5 345.06C269.181 344.449 267.729 344.186 266.28 344.294C264.83 344.403 263.433 344.88 262.22 345.68C260.923 346.52 259.841 347.653 259.059 348.986C258.278 350.32 257.819 351.817 257.72 353.36V355.25L257.02 353.49C256.788 352.864 256.371 352.324 255.824 351.942C255.278 351.56 254.627 351.353 253.96 351.35C251.37 351.22 248.42 353.1 247.06 355.71Z" fill="#FAFAFA"/>
<path d="M243 366.75L242.35 366.39C243.25 364.75 248.04 356.51 253.71 355.02C254.51 354.791 255.35 354.733 256.174 354.852C256.998 354.971 257.787 355.264 258.49 355.71L258.11 356.34C257.49 355.948 256.795 355.692 256.07 355.587C255.345 355.481 254.605 355.53 253.9 355.73C249.74 356.83 245.44 362.35 243 366.75Z" fill="#FAFAFA"/>
<path d="M316.14 278.66V283.29L239.96 327.27L179.82 292.55V287.92L256 243.94L316.14 278.66Z" fill="#263238"/>
<path d="M316.14 278.66L239.96 322.64L179.82 287.92L256 243.94L316.14 278.66Z" fill="#455A64"/>
<path d="M316.14 227.74V232.36L239.96 276.35L179.82 241.62V237L256 193.01L316.14 227.74Z" fill="#263238"/>
<path d="M316.14 227.74L239.96 271.72L179.82 237L256 193.01L316.14 227.74Z" fill="#455A64"/>
<path d="M239.7 211.33L184.1 179.28C183.671 178.97 183.167 178.778 182.64 178.726C182.114 178.673 181.582 178.761 181.1 178.98C180.38 179.39 177.82 180.88 177.1 181.29C176.662 181.597 176.314 182.016 176.093 182.503C175.871 182.99 175.784 183.528 175.84 184.06V336.23C175.922 337.713 176.352 339.156 177.095 340.441C177.839 341.727 178.875 342.82 180.12 343.63L235.72 375.69C236.149 376 236.653 376.191 237.18 376.244C237.707 376.297 238.238 376.209 238.72 375.99C239.44 375.57 242.02 374.09 242.72 373.66C243.16 373.356 243.511 372.939 243.736 372.454C243.961 371.969 244.052 371.432 244 370.9V218.74C243.918 217.253 243.485 215.807 242.738 214.52C241.991 213.232 240.95 212.139 239.7 211.33V211.33Z" fill="#263238"/>
<path opacity="0.2" d="M239.96 234.69L243.98 232.37V218.47L239.95 220.79L239.96 234.69Z" fill="black"/>
<path opacity="0.2" d="M320.16 188.39L324.18 186.08V172.18L320.15 174.5L320.16 188.39Z" fill="black"/>
<path d="M187.84 338.85L183.84 341.16V353.82C183.86 354.191 183.968 354.551 184.154 354.873C184.34 355.194 184.599 355.467 184.91 355.67L186.78 356.75C187.112 356.918 187.478 357.005 187.85 357.005C188.222 357.005 188.588 356.918 188.92 356.75L190.79 355.67C191.452 355.242 191.965 354.621 192.26 353.89L195.87 343.48L187.84 338.85Z" fill="#263238"/>
<path d="M183.83 353.82C183.85 354.191 183.958 354.551 184.144 354.873C184.33 355.194 184.589 355.467 184.9 355.67L186.77 356.75C186.899 356.828 187.045 356.876 187.195 356.89C187.345 356.904 187.497 356.884 187.638 356.831C187.78 356.778 187.907 356.694 188.012 356.585C188.116 356.475 188.194 356.344 188.24 356.2L191.85 345.79L183.85 341.16L183.83 353.82Z" fill="#37474F"/>
<path d="M227.93 362L223.93 364.31V376.97C223.948 377.34 224.054 377.701 224.238 378.022C224.422 378.344 224.68 378.617 224.99 378.82L226.87 379.9C227.2 380.068 227.565 380.155 227.935 380.155C228.305 380.155 228.67 380.068 229 379.9L230.88 378.82C231.539 378.39 232.052 377.769 232.35 377.04L235.95 366.63L227.93 362Z" fill="#263238"/>
<path d="M223.93 376.92C223.948 377.29 224.054 377.651 224.238 377.972C224.422 378.294 224.68 378.567 224.99 378.77L226.87 379.85C226.999 379.928 227.145 379.976 227.295 379.99C227.445 380.004 227.597 379.984 227.738 379.931C227.88 379.878 228.007 379.794 228.112 379.685C228.216 379.575 228.294 379.444 228.34 379.3L231.94 368.89L223.94 364.26L223.93 376.92Z" fill="#37474F"/>
<path d="M180.08 181.6L235.69 213.65C236.934 214.463 237.968 215.558 238.71 216.845C239.452 218.132 239.88 219.576 239.96 221.06V378.2C239.96 378.2 236.87 376.37 235.69 375.69L180.09 343.63C178.845 342.82 177.809 341.727 177.065 340.442C176.322 339.156 175.892 337.713 175.81 336.23V184.06C175.703 183.526 175.766 182.973 175.991 182.477C176.215 181.981 176.59 181.568 177.061 181.296C177.533 181.025 178.078 180.908 178.62 180.962C179.161 181.017 179.672 181.24 180.08 181.6V181.6Z" fill="#37474F"/>
<path opacity="0.2" d="M235.69 213.65L180.08 181.6C179.672 181.24 179.161 181.017 178.62 180.962C178.078 180.908 177.533 181.025 177.061 181.296C176.59 181.568 176.215 181.981 175.991 182.477C175.766 182.973 175.703 183.526 175.81 184.06V197.65L239.96 234.65V221.06C239.88 219.576 239.452 218.132 238.71 216.845C237.968 215.558 236.934 214.463 235.69 213.65Z" fill="black"/>
<path d="M312.13 228.11C312.033 228.108 311.94 228.068 311.871 227.999C311.802 227.93 311.763 227.837 311.76 227.74V182.08L268.21 207.22C268.169 207.246 268.123 207.264 268.076 207.272C268.028 207.28 267.978 207.277 267.931 207.265C267.884 207.253 267.84 207.231 267.802 207.201C267.764 207.171 267.733 207.133 267.71 207.09C267.685 207.048 267.668 207.002 267.661 206.953C267.654 206.905 267.656 206.855 267.669 206.808C267.681 206.76 267.702 206.716 267.731 206.677C267.761 206.638 267.798 206.605 267.84 206.58L312 181.12C312.056 181.085 312.12 181.067 312.185 181.067C312.25 181.067 312.315 181.085 312.37 181.12C312.425 181.153 312.471 181.2 312.503 181.256C312.534 181.312 312.55 181.376 312.55 181.44V227.74C312.551 227.793 312.54 227.846 312.518 227.894C312.496 227.943 312.465 227.986 312.425 228.021C312.385 228.056 312.338 228.082 312.287 228.098C312.236 228.113 312.183 228.117 312.13 228.11V228.11Z" fill="#FAFAFA"/>
<path d="M304.11 216.53H304C303.905 216.508 303.822 216.45 303.769 216.368C303.717 216.285 303.699 216.185 303.72 216.09L311.18 183.78L296.38 209.41C296.357 209.453 296.326 209.49 296.288 209.521C296.25 209.551 296.207 209.573 296.16 209.586C296.113 209.599 296.064 209.603 296.016 209.597C295.968 209.59 295.922 209.575 295.88 209.55C295.837 209.526 295.799 209.494 295.769 209.455C295.738 209.416 295.716 209.372 295.703 209.324C295.69 209.277 295.686 209.227 295.693 209.178C295.699 209.13 295.715 209.082 295.74 209.04L311.74 181.26C311.786 181.184 311.857 181.126 311.941 181.097C312.025 181.067 312.117 181.068 312.2 181.1C312.282 181.133 312.349 181.195 312.39 181.274C312.43 181.353 312.441 181.444 312.42 181.53L304.42 216.26C304.402 216.331 304.363 216.395 304.307 216.444C304.252 216.492 304.183 216.522 304.11 216.53V216.53Z" fill="#FAFAFA"/>
<path d="M288.08 205C288.029 205 287.979 204.99 287.932 204.969C287.886 204.948 287.844 204.918 287.81 204.88C287.742 204.811 287.703 204.717 287.703 204.62C287.703 204.523 287.742 204.429 287.81 204.36L311.87 181.21C311.939 181.142 312.033 181.103 312.13 181.103C312.227 181.103 312.321 181.142 312.39 181.21C312.459 181.281 312.498 181.376 312.498 181.475C312.498 181.574 312.459 181.669 312.39 181.74L288.33 204.88C288.298 204.916 288.26 204.944 288.217 204.965C288.174 204.986 288.128 204.998 288.08 205V205Z" fill="#FAFAFA"/>
<path d="M312.13 220.72C312.033 220.717 311.94 220.678 311.871 220.609C311.802 220.54 311.763 220.447 311.76 220.35C311.76 214.29 305 213.88 304.71 213.87C304.655 213.866 304.602 213.851 304.554 213.825C304.506 213.799 304.464 213.763 304.43 213.72C304.399 213.677 304.377 213.628 304.367 213.577C304.356 213.525 304.357 213.471 304.37 213.42C304.617 212.182 304.533 210.901 304.128 209.705C303.722 208.51 303.009 207.442 302.06 206.61C301.713 206.264 301.296 205.996 300.838 205.823C300.379 205.651 299.889 205.578 299.4 205.61C299.139 205.654 298.891 205.754 298.672 205.902C298.453 206.05 298.268 206.244 298.13 206.47C298.088 206.543 298.023 206.599 297.945 206.63C297.867 206.661 297.78 206.665 297.7 206.64C297.62 206.615 297.551 206.564 297.504 206.495C297.457 206.426 297.434 206.343 297.44 206.26C297.44 206.03 297.85 200.64 293.11 200.11C293.049 200.102 292.991 200.08 292.941 200.046C292.89 200.011 292.849 199.964 292.82 199.91C292.793 199.857 292.779 199.799 292.779 199.74C292.779 199.681 292.793 199.622 292.82 199.57C292.82 199.57 294.92 195.64 294.11 193.71C294.017 193.483 293.871 193.282 293.685 193.122C293.499 192.962 293.278 192.848 293.04 192.79C292.993 192.777 292.948 192.755 292.91 192.725C292.871 192.695 292.839 192.657 292.816 192.614C292.792 192.571 292.778 192.523 292.774 192.474C292.769 192.426 292.775 192.376 292.79 192.33C292.82 192.237 292.885 192.16 292.97 192.113C293.056 192.066 293.156 192.055 293.25 192.08C293.595 192.168 293.913 192.337 294.181 192.571C294.448 192.806 294.657 193.1 294.79 193.43C295.56 195.26 294.26 198.29 293.7 199.43C297.38 200.14 298.06 203.61 298.16 205.33C298.489 205.096 298.864 204.936 299.26 204.86C299.861 204.802 300.468 204.88 301.034 205.09C301.6 205.299 302.112 205.634 302.53 206.07C303.524 206.946 304.284 208.055 304.743 209.298C305.202 210.541 305.346 211.878 305.16 213.19C306.78 213.4 312.5 214.53 312.49 220.37C312.485 220.463 312.445 220.55 312.379 220.615C312.312 220.68 312.223 220.717 312.13 220.72V220.72Z" fill="#FAFAFA"/>
<path d="M312.13 210.74C312.037 210.74 311.947 210.705 311.878 210.642C311.81 210.579 311.768 210.493 311.76 210.4C311.6 208.28 310.37 205.54 308.82 204.86C308.513 204.723 308.172 204.678 307.84 204.731C307.508 204.785 307.199 204.934 306.95 205.16C306.889 205.199 306.818 205.22 306.745 205.22C306.672 205.22 306.601 205.199 306.54 205.16C306.477 205.125 306.425 205.072 306.391 205.008C306.357 204.944 306.343 204.872 306.35 204.8C306.35 204.8 306.68 201.05 304.99 199.5C304.623 199.194 304.189 198.98 303.723 198.875C303.257 198.771 302.772 198.779 302.31 198.9C302.246 198.913 302.18 198.909 302.118 198.888C302.057 198.867 302.002 198.83 301.96 198.78C301.917 198.73 301.888 198.669 301.876 198.604C301.864 198.539 301.869 198.472 301.89 198.41C302.23 197.48 302.89 194.87 302 193.94C301.58 193.51 300.81 193.47 299.7 193.83C299.624 193.855 299.542 193.855 299.467 193.83C299.391 193.804 299.326 193.755 299.28 193.69C299.234 193.626 299.21 193.549 299.21 193.47C299.21 193.391 299.234 193.314 299.28 193.25C299.9 192.47 301.43 190.19 301.05 189.1C300.987 188.949 300.886 188.818 300.756 188.72C300.626 188.621 300.472 188.559 300.31 188.54C300.263 188.528 300.218 188.507 300.179 188.478C300.14 188.449 300.107 188.413 300.081 188.371C300.056 188.329 300.04 188.283 300.033 188.235C300.026 188.186 300.028 188.137 300.04 188.09C300.049 188.042 300.068 187.997 300.096 187.957C300.124 187.917 300.159 187.883 300.201 187.858C300.242 187.833 300.288 187.816 300.336 187.81C300.384 187.803 300.433 187.807 300.48 187.82C300.761 187.861 301.026 187.975 301.249 188.15C301.472 188.326 301.644 188.557 301.75 188.82C302.16 190.01 301.16 191.82 300.46 192.82C300.821 192.734 301.197 192.738 301.556 192.83C301.915 192.922 302.246 193.101 302.52 193.35C303.62 194.49 303.09 196.9 302.76 198.03C303.248 197.972 303.742 198.017 304.211 198.164C304.68 198.31 305.112 198.554 305.48 198.88C306.97 200.24 307.13 202.88 307.11 204.09C307.423 203.943 307.764 203.867 308.11 203.867C308.456 203.867 308.797 203.943 309.11 204.09C311 204.92 312.31 207.87 312.5 210.26C312.504 210.308 312.498 210.356 312.483 210.402C312.468 210.448 312.444 210.491 312.413 210.527C312.381 210.563 312.342 210.593 312.299 210.614C312.255 210.635 312.208 210.647 312.16 210.65L312.13 210.74Z" fill="#FAFAFA"/>
<path d="M333.67 165.24C333.623 164.709 333.435 164.2 333.125 163.766C332.816 163.332 332.396 162.988 331.91 162.77L272.3 128.35C270.975 127.679 269.51 127.33 268.025 127.33C266.54 127.33 265.075 127.679 263.75 128.35L172.07 181.29C171.584 181.508 171.164 181.852 170.855 182.286C170.546 182.72 170.358 183.229 170.31 183.76V188.39C170.358 188.921 170.546 189.43 170.855 189.864C171.164 190.298 171.584 190.642 172.07 190.86L231.68 225.27C233.004 225.945 234.469 226.297 235.955 226.297C237.441 226.297 238.906 225.945 240.23 225.27L331.91 172.34C332.396 172.122 332.816 171.778 333.125 171.344C333.435 170.91 333.623 170.401 333.67 169.87V165.24Z" fill="#37474F"/>
<path d="M231.68 220.64L172.07 186.23C169.71 184.86 169.71 182.65 172.07 181.29L263.75 128.35C265.075 127.679 266.54 127.33 268.025 127.33C269.51 127.33 270.975 127.679 272.3 128.35L331.91 162.77C334.28 164.14 334.28 166.34 331.91 167.71L240.23 220.64C238.906 221.315 237.441 221.667 235.955 221.667C234.469 221.667 233.004 221.315 231.68 220.64V220.64Z" fill="#455A64"/>
<path opacity="0.1" d="M320.15 179.12L292.09 213.85L243.98 241.63L243.97 223.11L320.15 179.12Z" fill="black"/>
<path opacity="0.1" d="M316.14 232.36L292.09 264.77L243.98 292.56V274.03L316.14 232.36Z" fill="black"/>
<path opacity="0.1" d="M316.14 283.29L292.09 315.7L243.98 343.49V324.96L316.14 283.29Z" fill="black"/>
<path d="M205.78 384.44L132.02 427.03L48.96 378.96L122.72 336.38L205.78 384.44Z" fill="#FF7557"/>
<path opacity="0.5" d="M205.78 384.44L132.02 427.03L48.96 378.96L122.72 336.38L205.78 384.44Z" fill="black"/>
<path d="M122.72 278.65V336.38L48.96 378.96V321.24L122.72 278.65Z" fill="#FF7557"/>
<path opacity="0.23" d="M122.72 278.65V336.38L48.96 378.96V321.24L122.72 278.65Z" fill="black"/>
<path d="M132.02 369.3V427.03L48.96 378.96V321.24L132.02 369.3Z" fill="#FF7557"/>
<path opacity="0.38" d="M132.02 369.3V427.03L48.96 378.96V321.24L132.02 369.3Z" fill="black"/>
<path d="M205.78 326.71V384.44L122.72 336.38V278.65L205.78 326.71Z" fill="#FF7557"/>
<path opacity="0.4" d="M205.78 326.71V384.44L122.72 336.38V278.65L205.78 326.71Z" fill="black"/>
<path d="M205.78 384.44V326.71L132.02 369.3V427.03L205.78 384.44Z" fill="#FF7557"/>
<path opacity="0.23" d="M205.78 384.44V326.71L132.02 369.3V427.03L205.78 384.44Z" fill="black"/>
<path d="M122.72 278.65L122.82 246.69L205.68 294.81L205.78 326.71L122.72 278.65Z" fill="#FF7557"/>
<path opacity="0.2" d="M122.72 278.65L122.82 246.69L205.68 294.81L205.78 326.71L122.72 278.65Z" fill="black"/>
<path d="M132.02 369.3L138.94 341.34L212.03 299.14L205.78 326.71L132.02 369.3Z" fill="#FF7557"/>
<path opacity="0.3" d="M132.02 369.3L138.94 341.34L212.03 299.14L205.78 326.71L132.02 369.3Z" fill="black"/>
<path d="M48.96 321.24L40.16 292.24L113.92 249.66L122.72 278.65L48.96 321.24Z" fill="#FF7557"/>
<path opacity="0.1" d="M48.96 321.24L40.16 292.24L113.92 249.66L122.72 278.65L48.96 321.24Z" fill="black"/>
<path d="M48.96 321.24L31.6 297.27L114.67 345.33L132.02 369.3L48.96 321.24Z" fill="#FF7557"/>
<path opacity="0.45" d="M48.96 321.24L31.6 297.27L114.67 345.33L132.02 369.3L48.96 321.24Z" fill="black"/>
<g opacity="0.7">
<path d="M153.74 409.86C153.62 409.86 153.504 409.813 153.418 409.729C153.332 409.645 153.283 409.53 153.28 409.41V399.25C153.283 399.129 153.332 399.013 153.418 398.928C153.503 398.842 153.619 398.793 153.74 398.79C153.86 398.793 153.975 398.842 154.059 398.928C154.143 399.014 154.19 399.13 154.19 399.25V409.41C154.19 409.529 154.143 409.644 154.058 409.728C153.974 409.813 153.859 409.86 153.74 409.86V409.86Z" fill="white"/>
<path d="M152.41 402.77C152.35 402.779 152.29 402.779 152.23 402.77C152.121 402.72 152.035 402.629 151.991 402.518C151.946 402.406 151.946 402.282 151.99 402.17L153.61 398.44L155.41 400.52C155.474 400.613 155.502 400.727 155.488 400.839C155.474 400.951 155.419 401.054 155.334 401.129C155.248 401.203 155.138 401.243 155.025 401.242C154.912 401.24 154.803 401.197 154.72 401.12L153.87 400.12L152.87 402.52C152.827 402.603 152.76 402.67 152.678 402.715C152.596 402.759 152.503 402.779 152.41 402.77V402.77Z" fill="white"/>
<path d="M157.93 407.47C157.81 407.467 157.695 407.418 157.611 407.332C157.527 407.246 157.48 407.13 157.48 407.01V396.86C157.48 396.741 157.527 396.626 157.612 396.542C157.696 396.457 157.811 396.41 157.93 396.41C158.049 396.41 158.164 396.457 158.248 396.542C158.333 396.626 158.38 396.741 158.38 396.86V407C158.381 407.06 158.371 407.12 158.349 407.177C158.327 407.233 158.294 407.284 158.252 407.328C158.211 407.372 158.161 407.407 158.105 407.431C158.05 407.455 157.99 407.469 157.93 407.47V407.47Z" fill="white"/>
<path d="M156.6 400.38C156.54 400.389 156.48 400.389 156.42 400.38C156.365 400.356 156.315 400.322 156.274 400.278C156.233 400.235 156.2 400.184 156.179 400.128C156.158 400.072 156.148 400.013 156.149 399.953C156.151 399.893 156.165 399.834 156.19 399.78L157.8 396L159.6 398.07C159.683 398.156 159.73 398.271 159.73 398.39C159.73 398.509 159.683 398.624 159.6 398.71C159.558 398.752 159.508 398.786 159.453 398.809C159.398 398.832 159.339 398.844 159.28 398.844C159.22 398.844 159.162 398.832 159.107 398.809C159.052 398.786 159.002 398.752 158.96 398.71L158.11 397.71L157.11 400.11C157.069 400.206 156.995 400.286 156.903 400.335C156.81 400.384 156.703 400.4 156.6 400.38Z" fill="white"/>
</g>
<g opacity="0.7">
<path d="M141.65 416.75C141.479 416.752 141.31 416.711 141.16 416.63C140.979 416.514 140.833 416.352 140.736 416.16C140.639 415.968 140.596 415.754 140.61 415.54V414.29C140.613 414.17 140.662 414.055 140.748 413.971C140.834 413.887 140.95 413.84 141.07 413.84C141.189 413.84 141.304 413.887 141.388 413.972C141.473 414.056 141.52 414.17 141.52 414.29V415.54C141.52 415.72 141.52 415.82 141.61 415.84C141.7 415.86 141.75 415.84 141.9 415.76C142.182 415.5 142.403 415.182 142.55 414.828C142.697 414.474 142.765 414.093 142.75 413.71V408.51C142.75 408.39 142.797 408.276 142.882 408.192C142.966 408.107 143.081 408.06 143.2 408.06C143.319 408.06 143.434 408.107 143.518 408.192C143.603 408.276 143.65 408.39 143.65 408.51V413.71C143.672 414.25 143.567 414.787 143.343 415.279C143.119 415.771 142.782 416.203 142.36 416.54C142.146 416.672 141.901 416.744 141.65 416.75V416.75Z" fill="white"/>
<path d="M136.88 412.56V411.78C136.999 409.777 137.584 407.83 138.59 406.094C139.595 404.357 140.992 402.88 142.67 401.78C144.31 400.84 145.87 400.7 147.07 401.4C147.71 401.839 148.22 402.442 148.548 403.145C148.875 403.849 149.007 404.628 148.93 405.4V405.66L136.88 412.56ZM145.39 401.82C144.589 401.857 143.811 402.098 143.13 402.52C141.692 403.466 140.475 404.71 139.56 406.168C138.646 407.626 138.056 409.264 137.83 410.97L148 405.09C148.043 404.511 147.936 403.93 147.689 403.405C147.442 402.879 147.064 402.426 146.59 402.09C146.221 401.896 145.807 401.803 145.39 401.82V401.82Z" fill="white"/>
</g>
<path opacity="0.7" d="M31.6 297.27L114.67 345.33L132.02 369.3L113.75 346.18L31.6 297.27Z" fill="white"/>
<path opacity="0.7" d="M205.78 326.71L132.02 369.3V427.03L133.4 370.46L205.78 326.71Z" fill="white"/>
<path d="M97.54 303.62C105.15 302.52 112.1 297.62 116.54 291.46C118.611 288.582 120.136 285.349 121.04 281.92C122 278.714 122.158 275.321 121.5 272.04C120.13 266.55 115.05 263.3 109.68 262.62C106.955 262.262 104.184 262.532 101.58 263.41C98.8796 264.337 96.5368 266.085 94.88 268.41C93.8411 269.649 93.1876 271.164 93 272.77C92.984 273.399 93.2057 274.011 93.6209 274.484C94.0361 274.956 94.6142 275.255 95.24 275.32C96.8502 275.456 98.4594 275.047 99.81 274.16C101.457 273.237 102.907 272 104.08 270.52C106.595 267.416 108.477 263.849 109.62 260.02C110.422 256.735 110.422 253.305 109.62 250.02C109.011 246.584 107.44 243.39 105.09 240.81C102.396 238.36 98.9765 236.854 95.35 236.52C91.7407 236.024 88.0657 236.366 84.61 237.52C83.0921 237.98 81.6859 238.75 80.48 239.78C79.62 240.58 78.64 241.9 78.99 243.2C79.34 244.5 81.24 245.08 82.53 244.91C84.4392 244.552 86.188 243.605 87.53 242.2C89.0256 240.728 90.2959 239.043 91.3 237.2C92.046 235.876 92.4354 234.38 92.43 232.86C92.3 226.52 85.29 222.42 79.8 221.26C78.318 220.951 76.7999 220.85 75.29 220.96C74.78 220.96 75.09 221.8 75.5 221.77C78.4543 221.636 81.3902 222.299 84 223.69C86.5747 224.874 88.7372 226.799 90.21 229.22C90.8663 230.414 91.1903 231.762 91.1481 233.123C91.1058 234.484 90.699 235.81 89.97 236.96C88.9908 238.666 87.7717 240.221 86.35 241.58C85.16 242.66 83.35 243.91 81.68 243.79C81.4042 243.79 81.1343 243.711 80.9009 243.565C80.6674 243.418 80.48 243.208 80.36 242.96C80.3096 242.632 80.3367 242.296 80.4391 241.98C80.5416 241.664 80.7165 241.376 80.95 241.14C81.833 240.189 82.9251 239.457 84.14 239C87.14 237.753 90.3885 237.219 93.63 237.44C96.9705 237.501 100.219 238.544 102.97 240.44C105.366 242.43 107.068 245.13 107.83 248.15C108.795 251.218 109.095 254.457 108.71 257.65C108.116 260.863 106.882 263.924 105.08 266.65C103.23 269.71 100.91 272.65 97.43 273.85C96.57 274.16 94.77 274.61 94.43 273.36C94.09 272.11 95.07 270.57 95.7 269.6C97.0931 267.408 99.1241 265.694 101.52 264.69C103.832 263.763 106.328 263.387 108.81 263.59C113.52 263.94 118.3 266.4 119.94 271.08C120.763 273.877 120.852 276.839 120.2 279.68C119.612 282.795 118.492 285.785 116.89 288.52C113.444 294.331 108.225 298.884 102 301.51C100.52 302.15 99 302.69 97.45 303.19C97.29 303.25 97.36 303.65 97.54 303.62Z" fill="#E0E0E0"/>
<path d="M65.75 216.8C61.75 216.51 56.24 219.66 58.2 221.96C60.16 224.26 65.36 220.54 65.36 220.54C65.36 220.54 64.87 225.19 66.57 225.72C68.27 226.25 70.57 221.81 68.87 218.97C69.6898 219.293 70.5781 219.404 71.4522 219.292C72.3263 219.18 73.158 218.849 73.87 218.33C76.29 216.55 73.73 214.87 70.32 215.17C70.32 215.17 72.76 207.17 67.83 208.7C65.36 209.45 64.49 212.34 65.75 216.8Z" fill="#C6FF00"/>
<path opacity="0.65" d="M65.75 216.8C61.75 216.51 56.24 219.66 58.2 221.96C60.16 224.26 65.36 220.54 65.36 220.54C65.36 220.54 64.87 225.19 66.57 225.72C68.27 226.25 70.57 221.81 68.87 218.97C69.6898 219.293 70.5781 219.404 71.4522 219.292C72.3263 219.18 73.158 218.849 73.87 218.33C76.29 216.55 73.73 214.87 70.32 215.17C70.32 215.17 72.76 207.17 67.83 208.7C65.36 209.45 64.49 212.34 65.75 216.8Z" fill="white"/>
<path d="M69.47 218.5C69.2487 218.283 69.015 218.08 68.77 217.89C68.42 217.62 68.05 217.36 67.7 217.1C67.3593 216.852 67.0017 216.628 66.63 216.43C66.4161 216.311 66.1957 216.205 65.97 216.11C65.6584 215.964 65.3118 215.908 64.97 215.95C64.8805 215.953 64.7932 215.979 64.7174 216.027C64.6417 216.075 64.5801 216.142 64.5392 216.222C64.4983 216.301 64.4796 216.391 64.485 216.48C64.4905 216.57 64.5198 216.656 64.57 216.73C64.8449 217.028 65.1881 217.254 65.57 217.39L66.11 217.68C66.48 217.9 66.81 218.15 67.11 218.4C67.41 218.65 67.81 218.89 68.11 219.14C68.6259 219.558 69.2025 219.896 69.82 220.14C69.8477 220.155 69.8786 220.163 69.91 220.163C69.9414 220.163 69.9724 220.155 70 220.14C70.51 219.74 69.76 218.79 69.47 218.5Z" fill="#455A64"/>
<path d="M388.28 106.79C383.91 112.67 378.06 145 375.85 155.37C365.22 155.06 351 154.56 345.62 154C339.62 153.37 326.81 152.14 320.52 153C304.91 155 305.52 165.26 305.9 167.94C306.31 171 308.5 172.4 316.9 170.49C318.78 170.077 320.696 169.852 322.62 169.82C323.43 169.82 325.14 169.41 325.78 170.1C326.78 171.1 323.89 172.78 323.17 173.24C322.06 173.96 320.9 174.87 320.67 176.17C320.604 176.408 320.608 176.659 320.68 176.895C320.753 177.131 320.892 177.341 321.08 177.5C321.487 177.666 321.943 177.666 322.35 177.5C326.184 176.59 329.882 175.181 333.35 173.31C334.657 172.522 336.033 171.852 337.46 171.31C339.63 170.61 341.87 171.02 344.05 171.02C348.74 171.02 373.53 173.48 384.55 174.6C392.18 175.37 392.99 167.84 395.62 160.21C398.85 150.75 406.5 101 406.5 101C398.78 99.8799 393.48 99.8099 388.28 106.79Z" fill="#FFA8A7"/>
<path d="M406.62 100.22C402.93 99.5401 394.62 98.5101 390.1 103.56C385.58 108.61 384.51 113.91 382.52 121.56C380.53 129.21 377 142.91 377 142.91C377 142.91 382.83 151.28 401.08 148.91L406.62 100.22Z" fill="#37474F"/>
<path d="M452.45 364.64L439.62 364.65L435.93 336.8L452.12 336.16L452.45 364.64Z" fill="#FFA8A7"/>
<path d="M409.85 350.73C407.67 354.52 400.66 354.21 394.85 352.87L394.18 325.49L411.33 324.81L409.85 350.73Z" fill="#FFA8A7"/>
<path d="M451.58 188.66C452.04 200.51 450.47 270.58 450.47 270.58C450.9 273.98 454.42 279.91 455.15 292.18C456.22 310 452.59 348 452.59 348C452.59 348 445.24 351.84 437.32 348.9C437.32 348.9 429.26 293.9 426.32 276.32C423.78 261.02 420.52 219.98 420.52 219.98L414.19 272.58C415.351 278.806 415.83 285.14 415.62 291.47C415.36 299.65 410.7 339.37 410.7 339.37C405.384 341.109 399.673 341.245 394.28 339.76C394.28 339.76 390.46 278.12 390.02 270.65C389.52 262.13 389.86 186.92 389.86 186.92L451.58 188.66Z" fill="url(#paint0_linear_21_166)"/>
<path opacity="0.2" d="M420.54 220C420.54 220 409.33 216.82 401.69 210C401.69 210 405.27 216.11 415.41 221.53L414.83 267.44L420.54 220Z" fill="black"/>
<path d="M425 387.87C424.59 388.29 424.83 391.06 425.33 391.78C425.83 392.5 428.89 394.94 434.2 395.12C439.27 395.28 443.75 394.42 446.64 392.42C449.53 390.42 450.89 388.29 451.06 385.42C451.23 382.55 450.8 379.76 452.06 377.49C453.25 375.4 455.18 373.01 455.57 371.88C456.44 369.43 455.38 366.02 455.38 366.02L425 387.87Z" fill="#263238"/>
<path d="M437.8 362.2C437.806 363.293 437.651 364.382 437.34 365.43C436.255 368.84 434.623 372.052 432.51 374.94C431.05 376.81 429.21 378.38 427.66 380.19C426.001 381.907 424.984 384.142 424.78 386.52C424.72 390.52 429.08 391.67 432.41 392.13C436.02 392.606 439.69 392.264 443.15 391.13C444.972 390.581 446.597 389.516 447.828 388.065C449.06 386.614 449.845 384.837 450.09 382.95C450.23 381.84 450.09 380.72 450.21 379.61C450.549 377.061 451.514 374.635 453.02 372.55C453.891 371.343 454.635 370.05 455.24 368.69C456.17 366.19 455.24 363.46 454.48 361.05C453.83 358.96 453.09 356.59 452.36 356.82C452.36 357.93 452.36 358.03 451.65 358.82C450.65 359.82 450.7 361.21 449.65 362.08C449.953 361.157 450.161 360.205 450.27 359.24C450.319 358.846 450.223 358.448 450 358.12C449.639 357.827 449.214 357.621 448.76 357.52C447.178 357.053 445.553 356.748 443.91 356.61C442.346 356.404 440.758 356.455 439.21 356.76C438.752 356.866 438.344 357.123 438.05 357.49C437.792 357.899 437.664 358.377 437.68 358.86C437.68 359.51 437.79 361.14 437.8 362.2Z" fill="#455A64"/>
<path d="M434 372.73C435.44 371.57 438.74 371.42 440.56 371.55C442.404 371.634 444.197 372.184 445.77 373.15C446.002 373.305 446.281 373.372 446.558 373.339C446.835 373.306 447.091 373.175 447.28 372.97V372.97C447.39 372.853 447.474 372.714 447.526 372.562C447.577 372.41 447.595 372.248 447.578 372.089C447.561 371.929 447.509 371.775 447.427 371.637C447.344 371.499 447.233 371.381 447.1 371.29C445.362 370.112 443.328 369.447 441.23 369.37C436.77 369.24 435.5 370.05 435.5 370.05C435.5 370.05 433.51 371.43 434 372.73Z" fill="#F5F5F5"/>
<path d="M430.76 376.93C432.57 375.76 436.22 375.77 438.03 375.93C439.844 376.045 441.596 376.635 443.11 377.64C443.34 377.794 443.618 377.861 443.893 377.828C444.168 377.795 444.423 377.664 444.61 377.46C444.723 377.345 444.809 377.206 444.862 377.054C444.915 376.902 444.934 376.741 444.918 376.58C444.902 376.42 444.85 376.265 444.768 376.127C444.685 375.989 444.573 375.87 444.44 375.78C442.673 374.541 440.595 373.82 438.44 373.7C433.97 373.56 432.85 374.51 432.85 374.51C432.342 374.73 431.89 375.062 431.528 375.481C431.167 375.9 430.904 376.395 430.76 376.93V376.93Z" fill="#F5F5F5"/>
<path d="M442.83 365.05C440.942 364.792 439.02 365.026 437.25 365.73C436.49 366.2 436.02 367.46 436.53 367.73C438.079 367.034 439.776 366.732 441.47 366.85C443.143 366.948 444.787 367.334 446.33 367.99C446.72 368.14 447.18 368.36 447.58 368.56C447.708 368.625 447.848 368.664 447.991 368.674C448.135 368.683 448.279 368.664 448.414 368.616C448.55 368.568 448.675 368.494 448.78 368.396C448.886 368.299 448.971 368.181 449.03 368.05V368.05C449.125 367.823 449.132 367.568 449.051 367.336C448.97 367.103 448.806 366.909 448.59 366.79C446.817 365.803 444.853 365.209 442.83 365.05V365.05Z" fill="#F5F5F5"/>
<path d="M365.53 367.81C365.076 368.953 365.076 370.227 365.53 371.37C365.97 372.44 371.27 375.76 378.63 375.62C384.103 375.487 389.441 373.892 394.09 371C396.98 369.28 399.91 369.07 403.55 369C407.19 368.93 412.05 367.38 412.93 365.72C413.81 364.06 413.03 361.09 413.03 361.09L365.53 367.81Z" fill="#263238"/>
<path d="M396.23 346.31L395.66 346.16C395.336 346.062 394.996 346.031 394.66 346.07C394.3 346.157 393.975 346.352 393.73 346.63C392.973 347.517 392.303 348.475 391.73 349.49C390.08 351.92 386.73 353.85 383.13 355.58C380.67 356.75 378.28 357.64 375.75 358.63C373.22 359.62 369.75 360.18 367.75 361.42C364.75 363.23 364.18 368.08 367.36 370.16C370.12 371.96 377.48 374.11 385.36 372.27C389.67 371.27 394.61 366.95 400.21 366.78C403.78 366.67 410.54 365.99 412.95 363.4C413.86 362.25 412.95 358.4 412.14 355.08C411.3 351.46 411.68 346.08 410.06 346.08L409.96 347.89C409.81 348.43 408.54 348.96 408.14 349.38L406.7 350.9C406.11 351.604 405.39 352.188 404.58 352.62C403.15 353.26 401.48 352.88 399.95 352.48C399.89 352.48 400.72 349.7 400.81 349.43C400.9 349.219 400.928 348.986 400.89 348.76C400.813 348.538 400.661 348.351 400.46 348.23C399.198 347.305 397.757 346.651 396.23 346.31V346.31Z" fill="#455A64"/>
<path d="M386.55 353.8C386.83 353.324 387.224 352.925 387.698 352.64C388.171 352.356 388.708 352.194 389.26 352.17C390.89 351.95 393.68 353.27 395.39 354.82C395.551 354.965 395.674 355.148 395.749 355.352C395.823 355.556 395.847 355.774 395.817 355.989C395.788 356.204 395.706 356.409 395.579 356.585C395.452 356.761 395.284 356.904 395.09 357V357C394.846 357.121 394.57 357.163 394.302 357.12C394.033 357.077 393.784 356.951 393.59 356.76C391.717 354.895 389.192 353.834 386.55 353.8V353.8Z" fill="#F5F5F5"/>
<path d="M381.41 356.37C381.785 355.891 382.269 355.509 382.823 355.257C383.376 355.004 383.982 354.889 384.59 354.92C384.59 354.92 388.81 355.24 391.3 357.8C391.454 357.94 391.571 358.116 391.642 358.311C391.714 358.507 391.736 358.717 391.709 358.923C391.681 359.13 391.604 359.326 391.484 359.496C391.364 359.666 391.205 359.805 391.02 359.9V359.9C390.784 360.015 390.518 360.055 390.259 360.014C389.999 359.972 389.759 359.853 389.57 359.67C388.545 358.542 387.279 357.66 385.867 357.088C384.454 356.517 382.931 356.272 381.41 356.37V356.37Z" fill="#F5F5F5"/>
<path d="M375.76 358.63C376.185 358.19 376.7 357.847 377.269 357.625C377.839 357.402 378.45 357.305 379.06 357.34C381.451 357.604 383.697 358.615 385.48 360.23C385.634 360.371 385.751 360.548 385.822 360.744C385.893 360.94 385.916 361.151 385.889 361.358C385.861 361.565 385.784 361.762 385.664 361.933C385.545 362.104 385.385 362.244 385.2 362.34V362.34C384.964 362.457 384.696 362.496 384.436 362.453C384.176 362.41 383.936 362.287 383.75 362.1C382.779 360.941 381.552 360.023 380.165 359.421C378.778 358.819 377.27 358.548 375.76 358.63V358.63Z" fill="#F5F5F5"/>
<path d="M428 100.44C432.72 100.98 438.3 101.27 442.81 101.86C448.62 102.62 453.15 108.63 454.57 117.93C456.13 128.17 449.57 157.53 449.57 157.53L451.66 192.15C443.15 198.42 406.91 201.71 388.85 188.67C388.85 188.67 389.27 129.75 390.68 120.67C392.62 108.22 395.68 100.49 409.68 99.6001L428 100.44Z" fill="#455A64"/>
<path d="M460.27 175.44C458.74 178 457.2 180.56 455.62 183.09C455.04 184.03 454.45 184.96 453.84 185.88C453.509 186.33 453.123 186.737 452.69 187.09C451.93 187.61 450.35 187.28 449.43 187.31C444.91 187.463 440.403 187.797 435.91 188.31C435.534 188.298 435.16 188.369 434.814 188.518C434.469 188.666 434.16 188.889 433.91 189.17C433.725 189.557 433.688 189.999 433.806 190.411C433.924 190.824 434.189 191.179 434.55 191.41C435.286 191.852 436.122 192.1 436.98 192.13L440.88 192.59C441.436 192.609 441.976 192.782 442.44 193.09C443.86 194.24 441.15 195.62 440.34 196.18C438.711 197.312 436.972 198.277 435.15 199.06C427.02 202.48 426.03 204.96 427.53 207.78C428.83 210.23 434.45 219.14 448.73 211.47C454.48 208.38 463.23 198.62 467.22 193.9C472.96 187.09 482.67 171.9 482.67 171.9C488.19 164.32 488.9 161.21 489.03 158.06C489.16 154.91 472.03 130.68 466.21 122.17C460.39 113.66 457.62 103.31 442.81 101.89C442.81 101.89 437.17 119.77 446.51 131.34L468.08 161.43C468.08 161.43 462.37 171.93 460.27 175.44Z" fill="#FFA8A7"/>
<path d="M475.92 133.71C473.15 129.71 470.26 125.59 467.47 121.51C455.72 104.36 456.71 101.22 439.77 100.98C438.27 103.28 437.38 113.18 439.64 123.12C441.53 131.47 448.64 137.36 448.64 137.36L457.12 148.85C457.12 148.85 462.31 148.69 468.53 144.13C472.122 141.614 474.733 137.932 475.92 133.71V133.71Z" fill="#37474F"/>
<path d="M439.17 55.3701C438.318 54.1012 437.139 53.087 435.756 52.4354C434.374 51.7838 432.841 51.5194 431.32 51.6701L430.44 73.1401L429 81.0701L429.25 89.9001C430.086 89.7819 430.878 89.454 431.553 88.9469C432.228 88.4398 432.764 87.7701 433.11 87.0001C434.43 84.4601 438.11 72.1801 438.11 72.1801C441.41 62.0901 440.71 57.5301 439.17 55.3701Z" fill="#263238"/>
<path d="M429.44 73.2399C429.811 71.935 430.526 70.7539 431.51 69.8199C432.74 68.4999 437.64 67.0699 439.87 71.2299C442.1 75.3899 438.34 80.8799 435.44 82.5599C431.73 84.7199 429.55 81.7799 429.55 81.7799L429.64 101.55C427.91 105.55 420.1 109.11 415.45 108.55C411.75 108.08 408.34 105.17 411.65 100.93L411.38 95.2899C411.38 95.2899 406.43 96.2899 403.98 96.0399C399.91 95.6199 397.2 92.5499 395.76 88.2299C393.44 81.2899 392.41 75.6499 393.39 61.7299C394.47 46.4799 412.1 45.4499 421.93 50.9699C431.76 56.4899 429.44 73.2399 429.44 73.2399Z" fill="#FFA8A7"/>
<path d="M387.78 45.89C387.33 42.56 388.48 38.99 391.97 37.81C393.251 37.2743 394.657 37.1111 396.026 37.3393C397.395 37.5675 398.672 38.1779 399.71 39.1C400.147 37.9252 400.904 36.8957 401.894 36.1273C402.885 35.3588 404.07 34.8818 405.317 34.7498C406.563 34.6179 407.822 34.8363 408.952 35.3804C410.081 35.9245 411.036 36.7728 411.71 37.83C412.637 36.422 414.068 35.4233 415.71 35.04C416.722 34.814 417.769 34.7932 418.789 34.9787C419.81 35.1642 420.782 35.5523 421.65 36.12C423.07 37.17 424.74 39.12 424.32 41.65C427.13 40.52 430.06 41.46 432.15 43.94C433.394 45.4587 434.097 47.3478 434.15 49.31C434.222 50.3293 434.076 51.3522 433.72 52.31C433.32 53.22 432.5 53.82 432.26 54.85C431.911 55.7563 431.731 56.7189 431.73 57.69C431.96 59.37 432.33 61.05 432.55 62.69C432.787 64.3235 432.924 65.9699 432.96 67.62C432.908 68.0081 432.773 68.3804 432.564 68.7117C432.355 69.043 432.078 69.3255 431.75 69.54C430.816 70.3565 430.093 71.3854 429.64 72.54C429.29 73.26 428.95 75.04 428.26 75.54C426.13 77.03 425.89 72.21 425.79 71.28C425.653 69.1456 425.653 67.0045 425.79 64.87C424.716 64.8562 423.656 64.6177 422.68 64.1699C421.703 63.7221 420.831 63.075 420.12 62.27C419.382 61.3655 418.896 60.2824 418.71 59.13C418.595 58.4698 418.541 57.8002 418.55 57.13C417.16 59.43 413.93 60.37 411.63 60.13C407.77 59.78 406.44 58.13 405.82 56.92C405.576 58.1127 405.051 59.2302 404.29 60.18C403.304 61.1066 402.116 61.7913 400.82 62.18C399.702 62.4783 398.524 62.4665 397.412 62.1459C396.301 61.8252 395.297 61.2078 394.51 60.36C392.94 62.61 388.96 61.61 388.08 60.98C386.08 59.53 385.43 57.8 385.21 55.33C384.99 52.86 385.99 50.04 388.73 49.07C388.236 48.0712 387.915 46.9961 387.78 45.89V45.89Z" fill="#263238"/>
<path d="M411.38 95.2601C411.38 95.2601 420.32 93.0001 423.38 91.1601C425.19 90.1003 426.637 88.5176 427.53 86.6201C427.144 88.4919 426.385 90.267 425.3 91.8401C423.14 94.9101 411.48 97.6701 411.48 97.6701L411.38 95.2601Z" fill="#F28F8F"/>
<path d="M411.88 72.58C411.914 72.9588 412.058 73.3193 412.295 73.6167C412.532 73.9141 412.851 74.1353 413.213 74.2528C413.575 74.3703 413.963 74.379 414.329 74.2776C414.696 74.1763 415.024 73.9694 415.274 73.6828C415.524 73.3962 415.685 73.0424 415.735 72.6655C415.786 72.2886 415.724 71.9052 415.559 71.5628C415.393 71.2205 415.13 70.9344 414.804 70.7401C414.477 70.5458 414.1 70.4519 413.72 70.47C413.198 70.511 412.713 70.7549 412.369 71.1493C412.025 71.5438 411.85 72.0575 411.88 72.58Z" fill="#263238"/>
<path d="M408.89 87.05C408.936 87.5379 409.124 88.0015 409.431 88.3834C409.738 88.7652 410.151 89.0484 410.617 89.1977C411.084 89.3471 411.584 89.356 412.056 89.2233C412.528 89.0906 412.95 88.8223 413.27 88.4516C413.591 88.0809 413.795 87.6242 413.858 87.1383C413.921 86.6524 413.84 86.1586 413.625 85.7184C413.41 85.2782 413.07 84.911 412.648 84.6624C412.225 84.4137 411.739 84.2947 411.25 84.32C410.577 84.3737 409.952 84.6902 409.51 85.2011C409.069 85.712 408.846 86.3761 408.89 87.05V87.05Z" fill="#F28F8F"/>
<path d="M413.49 65.9201L417.61 67.9201C417.867 67.3554 417.897 66.7137 417.694 66.1276C417.491 65.5414 417.071 65.0555 416.52 64.7701C416.247 64.6394 415.95 64.5656 415.647 64.553C415.344 64.5404 415.042 64.5893 414.759 64.6968C414.476 64.8043 414.217 64.9681 413.999 65.1784C413.781 65.3887 413.608 65.641 413.49 65.9201V65.9201Z" fill="#263238"/>
<path d="M395.57 67.6499L399.08 64.6499C398.897 64.4106 398.667 64.2112 398.404 64.0641C398.141 63.9169 397.851 63.825 397.551 63.7941C397.252 63.7632 396.949 63.7939 396.661 63.8843C396.374 63.9748 396.108 64.123 395.88 64.3199C395.412 64.7298 395.119 65.3036 395.061 65.9231C395.003 66.5427 395.186 67.1607 395.57 67.6499V67.6499Z" fill="#263238"/>
<path d="M396.62 72.19C396.644 72.5599 396.777 72.9144 397.002 73.2089C397.227 73.5035 397.534 73.7249 397.885 73.8454C398.236 73.9659 398.614 73.9801 398.973 73.8861C399.331 73.7922 399.654 73.5943 399.9 73.3174C400.147 73.0405 400.306 72.6969 400.358 72.3298C400.409 71.9627 400.351 71.5885 400.191 71.2543C400.031 70.9201 399.775 70.6407 399.456 70.4513C399.138 70.262 398.77 70.171 398.4 70.19C397.9 70.2234 397.434 70.4518 397.101 70.8259C396.768 71.1999 396.595 71.6898 396.62 72.19V72.19Z" fill="#263238"/>
<path d="M405.9 69.97L405.84 81.8L399.58 80L405.9 69.97Z" fill="#F28F8F"/>
<path d="M390.19 86.5199C390.248 86.5071 390.302 86.4828 390.35 86.4484C390.399 86.4141 390.439 86.3703 390.47 86.3199C390.506 86.2705 390.531 86.2144 390.544 86.155C390.557 86.0955 390.558 86.0341 390.547 85.9742C390.536 85.9144 390.513 85.8575 390.479 85.8069C390.445 85.7563 390.401 85.7131 390.35 85.6799L384.91 82.0599C384.86 82.0262 384.803 82.0028 384.743 81.9911C384.684 81.9794 384.622 81.9795 384.563 81.9916C384.503 82.0037 384.447 82.0275 384.397 82.0615C384.346 82.0955 384.303 82.1392 384.27 82.1899C384.235 82.2399 384.21 82.2966 384.198 82.3564C384.185 82.4162 384.185 82.478 384.197 82.5378C384.21 82.5977 384.234 82.6545 384.269 82.7047C384.304 82.7549 384.348 82.7975 384.4 82.8299L389.83 86.4499C389.881 86.4874 389.94 86.5131 390.002 86.5252C390.064 86.5373 390.129 86.5355 390.19 86.5199Z" fill="#E0E0E0"/>
<path d="M389.61 88.86C389.695 88.839 389.772 88.7953 389.834 88.7336C389.895 88.6719 389.939 88.5946 389.96 88.51C389.987 88.3894 389.965 88.263 389.9 88.1582C389.834 88.0534 389.73 87.9786 389.61 87.95L383.25 86.48C383.191 86.4651 383.129 86.4621 383.069 86.4712C383.009 86.4803 382.951 86.5012 382.899 86.5329C382.847 86.5645 382.801 86.6062 382.766 86.6555C382.73 86.7048 382.704 86.7607 382.69 86.82C382.663 86.9406 382.685 87.067 382.75 87.1718C382.816 87.2766 382.92 87.3514 383.04 87.38L389.4 88.86C389.47 88.87 389.54 88.87 389.61 88.86V88.86Z" fill="#E0E0E0"/>
<path d="M383.7 93.0901H383.76L389.89 90.8501C390.005 90.8077 390.099 90.7212 390.151 90.6096C390.202 90.498 390.207 90.3705 390.165 90.2551C390.123 90.1398 390.036 90.046 389.924 89.9944C389.813 89.9428 389.685 89.9377 389.57 89.9802L383.44 92.2202C383.382 92.2412 383.33 92.2736 383.285 92.3154C383.24 92.3571 383.204 92.4074 383.179 92.4633C383.154 92.5192 383.14 92.5796 383.138 92.6409C383.137 92.7021 383.148 92.7631 383.17 92.8202C383.212 92.9206 383.288 93.0029 383.385 93.0523C383.483 93.1018 383.594 93.1152 383.7 93.0901V93.0901Z" fill="#E0E0E0"/>
<path d="M331.84 141.06C331.966 141.314 332.164 141.525 332.41 141.667C332.655 141.809 332.936 141.877 333.219 141.861C333.502 141.845 333.774 141.746 334.002 141.577C334.23 141.408 334.403 141.176 334.5 140.91L339.06 129.66C339.134 129.48 339.171 129.286 339.168 129.091C339.166 128.896 339.124 128.704 339.046 128.525C338.967 128.347 338.853 128.186 338.711 128.053C338.569 127.919 338.402 127.816 338.219 127.748C338.036 127.681 337.841 127.652 337.646 127.661C337.452 127.671 337.261 127.72 337.086 127.805C336.91 127.89 336.754 128.009 336.626 128.156C336.498 128.303 336.4 128.475 336.34 128.66L331.77 139.91C331.702 140.096 331.674 140.294 331.686 140.492C331.698 140.69 331.75 140.883 331.84 141.06Z" fill="#E0E0E0"/>
<path d="M324.33 141C324.476 141.295 324.717 141.531 325.015 141.671C325.313 141.81 325.649 141.845 325.969 141.768C326.288 141.691 326.572 141.508 326.774 141.249C326.976 140.989 327.084 140.669 327.08 140.34L326.93 126.34C326.9 125.977 326.735 125.64 326.467 125.393C326.199 125.147 325.849 125.01 325.485 125.01C325.121 125.01 324.771 125.147 324.503 125.393C324.236 125.64 324.07 125.977 324.04 126.34L324.18 140.34C324.177 140.569 324.229 140.795 324.33 141V141Z" fill="#E0E0E0"/>
<path d="M311.6 133.21L311.69 133.38L318.58 143.38C318.793 143.697 319.123 143.916 319.498 143.991C319.872 144.066 320.261 143.99 320.58 143.78C320.891 143.562 321.105 143.231 321.178 142.859C321.25 142.486 321.176 142.099 320.97 141.78L314.08 131.78C313.879 131.47 313.567 131.249 313.208 131.162C312.849 131.076 312.47 131.131 312.15 131.316C311.83 131.501 311.594 131.802 311.489 132.156C311.385 132.51 311.421 132.891 311.59 133.22L311.6 133.21Z" fill="#E0E0E0"/>
<defs>
<linearGradient id="paint0_linear_21_166" x1="422.547" y1="186.92" x2="422.547" y2="350.008" gradientUnits="userSpaceOnUse">
<stop stop-color="#DC8A78"/>
<stop offset="1" stop-color="#FD6915" stop-opacity="0"/>
</linearGradient>
</defs>
</svg>
